<?xml version="1.0" encoding="UTF-8" standalone="no"?>
<!DOCTYPE svg PUBLIC "-//W3C//DTD SVG 1.1//EN" "http://www.w3.org/Graphics/SVG/1.1/DTD/svg11.dtd">
<svg width="100%" height="100%" viewBox="0 0 324 138" version="1.1" xmlns="http://www.w3.org/2000/svg" xmlns:xlink="http://www.w3.org/1999/xlink" xml:space="preserve" xmlns:serif="http://www.serif.com/" style="fill-rule:evenodd;clip-rule:evenodd;stroke-miterlimit:10;">
    <g transform="matrix(1,0,0,1,-83.434,-7.10543e-14)">
        <g transform="matrix(0,1,1,0,136.869,30.1521)">
            <ellipse cx="38.361" cy="0" rx="38.363" ry="38.361" style="fill:none;stroke:rgb(0,83,158);stroke-width:2.67px;"/>
        </g>
        <g transform="matrix(0,1,1,0,154.398,68.0786)">
            <path d="M-29.188,-29.188L29.188,-29.188" style="fill:none;fill-rule:nonzero;stroke:rgb(159,222,242);stroke-width:1.5px;stroke-linecap:round;stroke-linejoin:round;"/>
        </g>
        <g transform="matrix(0,1,1,0,162.291,83.4359)">
            <path d="M-13.831,-13.831L13.831,-13.831" style="fill:none;fill-rule:nonzero;stroke:rgb(159,222,242);stroke-width:1.5px;stroke-linecap:round;stroke-linejoin:round;"/>
        </g>
        <g transform="matrix(0,1,1,0,159.503,49.9331)">
            <path d="M-11.042,-11.042L11.042,-11.042" style="fill:none;fill-rule:nonzero;stroke:rgb(159,222,242);stroke-width:1.5px;stroke-linecap:round;stroke-linejoin:round;"/>
        </g>
        <g transform="matrix(1,0,0,1,107.796,79.8476)">
            <path d="M0,0L58.08,0" style="fill:none;fill-rule:nonzero;stroke:rgb(159,222,242);stroke-width:1.5px;stroke-linecap:round;stroke-linejoin:round;"/>
        </g>
        <g transform="matrix(1,0,0,1,107.796,56.5898)">
            <path d="M0,0L58.08,0" style="fill:none;fill-rule:nonzero;stroke:rgb(159,222,242);stroke-width:1.5px;stroke-linecap:round;stroke-linejoin:round;"/>
        </g>
        <g transform="matrix(1,0,0,1,136.763,52.4775)">
            <path d="M0,-16.294L-5.875,-9.568L-5.875,0L5.889,0L5.889,-9.564L0,-16.294Z" style="fill:rgb(0,83,158);fill-rule:nonzero;"/>
        </g>
        <g transform="matrix(1,0,0,1,130.888,83.8032)">
            <path d="M0,15.104L11.723,7.547L0.008,0L0,15.104Z" style="fill:rgb(0,166,219);fill-rule:nonzero;"/>
        </g>
        <g transform="matrix(1,0,0,1,107.205,63.7644)">
            <path d="M0,11.299C0.347,11.305 7.161,11.196 12.44,11.445C14.405,11.537 16.843,11.522 19.726,11.403C21.761,11.318 24.021,11.182 26.491,10.991L26.702,10.977C27.056,10.949 27.464,10.924 27.907,10.895C29.759,10.776 32.063,10.629 33.245,10.291C34.319,9.984 34.616,9.311 34.544,8.828C34.474,8.35 33.991,7.796 32.81,7.813C32.794,7.816 30.97,8.03 27.255,8.135C22.343,8.264 20.165,6.289 19.489,5.492C20.505,4.735 22.827,2.877 22.993,1.605C23.03,1.297 22.956,1.02 22.771,0.8C21.903,-0.238 19.224,1.144 14.255,4.24C13.409,4.766 12.679,5.221 12.317,5.403C10.972,6.082 2.384,5.159 -0.031,4.526L0,11.299Z" style="fill:rgb(0,83,158);fill-rule:nonzero;"/>
        </g>
        <g transform="matrix(1,0,0,1,166.619,65.4643)">
            <path d="M0,1.144C-1.492,0.566 -7.257,0.246 -10.001,1.558C-11.017,2.044 -12.163,2.841 -13.272,3.611C-14.966,4.789 -16.485,5.845 -17.61,5.898C-17.989,5.914 -18.321,5.818 -18.603,5.576C-18.958,5.269 -19.12,4.873 -19.071,4.433C-18.913,2.997 -16.372,1.338 -15.052,0.568C-17.497,-0.713 -23.597,-1.695 -26.493,-1.429C-28.46,-1.241 -30.093,-0.936 -30.108,-0.934C-30.63,-0.833 -31.122,-1.001 -31.427,-1.378C-31.716,-1.739 -31.79,-2.239 -31.612,-2.659C-31.417,-3.12 -30.964,-3.414 -30.366,-3.468C-30.067,-3.496 -29.558,-3.567 -28.876,-3.665C-26.149,-4.051 -21.081,-4.77 -15.397,-4.726C-8.636,-4.672 -0.068,-3.92 0,-3.911L0,1.144Z" style="fill:rgb(0,83,158);fill-rule:nonzero;"/>
        </g>
        <g transform="matrix(1,0,0,1,149.491,68.2111)">
            <path d="M0,-1.717C-0.557,-1.928 -6.719,-3.674 -11.424,-2.99L-11.486,-2.975C-11.943,-2.778 -12.406,-2.571 -12.805,-2.395C-13.26,-2.192 -13.629,-2.028 -13.809,-1.957C-14.398,-1.719 -14.525,-1.256 -14.455,-0.936C-14.357,-0.49 -13.928,-0.197 -13.404,-0.219C-13.225,-0.227 -13.035,-0.272 -12.846,-0.354L-12.639,-0.444C-12.283,-0.598 -11.764,-0.821 -11.15,-1.067C-11.191,-1.037 -11.236,-1.004 -11.275,-0.975C-11.615,-0.715 -11.939,-0.471 -12.186,-0.322C-12.664,-0.045 -12.875,0.381 -12.748,0.808C-12.617,1.248 -12.17,1.539 -11.66,1.515C-11.375,1.504 -11.088,1.392 -10.826,1.197C-10.063,0.627 -9.1,-0.084 -8.188,-0.547C-8.512,-0.317 -8.83,-0.082 -9.109,0.129C-9.328,0.293 -9.521,0.437 -9.664,0.541C-9.947,0.74 -10.057,1.053 -9.953,1.353C-9.83,1.711 -9.445,1.957 -9.037,1.937C-8.846,1.929 -8.658,1.865 -8.479,1.752L-8.242,1.599C-7.162,0.896 -4.885,-0.404 -3.283,-0.77C-1.709,-1.133 1.037,-1.326 1.037,-1.326L0,-1.717Z" style="fill:rgb(0,83,158);fill-rule:nonzero;"/>
        </g>
    </g>
    <g transform="matrix(2.33311,0,0,2.33311,-118.841,-68.8087)">
        <g transform="matrix(1,0,0,1,-75.5077,-274.466)">
            <path d="M180.072,327.955L177.989,320.23L175.879,327.955C175.715,328.541 175.585,328.962 175.488,329.217C175.392,329.472 175.223,329.7 174.983,329.902C174.743,330.104 174.423,330.205 174.025,330.205C173.703,330.205 173.438,330.145 173.23,330.025C173.022,329.905 172.853,329.735 172.724,329.515C172.595,329.296 172.49,329.035 172.408,328.733C172.326,328.432 172.252,328.152 172.188,327.894L170.043,319.219C169.915,318.715 169.85,318.331 169.85,318.068C169.85,317.734 169.967,317.452 170.202,317.224C170.436,316.995 170.726,316.881 171.072,316.881C171.546,316.881 171.866,317.034 172.03,317.338C172.194,317.643 172.337,318.085 172.46,318.665L174.148,326.189L176.038,319.149C176.178,318.61 176.304,318.2 176.416,317.918C176.527,317.637 176.709,317.394 176.96,317.189C177.212,316.984 177.555,316.881 177.989,316.881C178.428,316.881 178.77,316.988 179.013,317.202C179.256,317.416 179.424,317.649 179.518,317.901C179.612,318.153 179.738,318.569 179.896,319.149L181.803,326.189L183.491,318.665C183.573,318.273 183.65,317.965 183.724,317.743C183.797,317.52 183.923,317.321 184.102,317.145C184.28,316.969 184.54,316.881 184.879,316.881C185.219,316.881 185.508,316.994 185.745,317.22C185.982,317.445 186.101,317.728 186.101,318.068C186.101,318.308 186.037,318.692 185.908,319.219L183.763,327.894C183.617,328.48 183.495,328.909 183.398,329.182C183.302,329.454 183.138,329.693 182.906,329.898C182.675,330.103 182.348,330.205 181.926,330.205C181.528,330.205 181.209,330.106 180.968,329.907C180.728,329.707 180.561,329.483 180.467,329.234C180.374,328.985 180.242,328.559 180.072,327.955Z" style="fill:rgb(0,83,158);fill-rule:nonzero;"/>
            <path d="M196.199,325.327C196.199,326.042 196.088,326.702 195.865,327.305C195.643,327.909 195.32,328.427 194.898,328.861C194.477,329.294 193.973,329.627 193.387,329.858C192.801,330.09 192.142,330.205 191.409,330.205C190.683,330.205 190.029,330.088 189.449,329.854C188.869,329.619 188.367,329.284 187.942,328.848C187.517,328.411 187.195,327.895 186.975,327.301C186.755,326.706 186.646,326.048 186.646,325.327C186.646,324.601 186.757,323.936 186.98,323.332C187.202,322.729 187.522,322.213 187.938,321.786C188.354,321.358 188.857,321.028 189.449,320.797C190.041,320.565 190.694,320.45 191.409,320.45C192.136,320.45 192.795,320.567 193.387,320.801C193.979,321.036 194.485,321.369 194.907,321.803C195.329,322.237 195.65,322.752 195.87,323.35C196.089,323.948 196.199,324.607 196.199,325.327ZM193.791,325.327C193.791,324.349 193.576,323.587 193.145,323.042C192.714,322.497 192.136,322.225 191.409,322.225C190.94,322.225 190.527,322.347 190.17,322.59C189.813,322.833 189.537,323.192 189.344,323.666C189.15,324.141 189.054,324.695 189.054,325.327C189.054,325.954 189.149,326.502 189.339,326.971C189.53,327.44 189.802,327.799 190.157,328.048C190.511,328.297 190.929,328.421 191.409,328.421C192.136,328.421 192.714,328.147 193.145,327.599C193.576,327.052 193.791,326.294 193.791,325.327Z" style="fill:rgb(0,83,158);fill-rule:nonzero;"/>
            <path d="M207.071,325.327C207.071,326.042 206.96,326.702 206.737,327.305C206.514,327.909 206.192,328.427 205.77,328.861C205.348,329.294 204.844,329.627 204.258,329.858C203.672,330.09 203.013,330.205 202.281,330.205C201.554,330.205 200.901,330.088 200.321,329.854C199.741,329.619 199.238,329.284 198.814,328.848C198.389,328.411 198.066,327.895 197.847,327.301C197.627,326.706 197.517,326.048 197.517,325.327C197.517,324.601 197.628,323.936 197.851,323.332C198.074,322.729 198.393,322.213 198.809,321.786C199.225,321.358 199.729,321.028 200.321,320.797C200.913,320.565 201.566,320.45 202.281,320.45C203.007,320.45 203.667,320.567 204.258,320.801C204.85,321.036 205.357,321.369 205.779,321.803C206.201,322.237 206.522,322.752 206.741,323.35C206.961,323.948 207.071,324.607 207.071,325.327ZM204.663,325.327C204.663,324.349 204.447,323.587 204.017,323.042C203.586,322.497 203.007,322.225 202.281,322.225C201.812,322.225 201.399,322.347 201.042,322.59C200.684,322.833 200.409,323.192 200.215,323.666C200.022,324.141 199.925,324.695 199.925,325.327C199.925,325.954 200.021,326.502 200.211,326.971C200.401,327.44 200.674,327.799 201.028,328.048C201.383,328.297 201.8,328.421 202.281,328.421C203.007,328.421 203.586,328.147 204.017,327.599C204.447,327.052 204.663,326.294 204.663,325.327Z" style="fill:rgb(0,83,158);fill-rule:nonzero;"/>
            <path d="M211.14,321.777L211.14,322.067C211.562,321.51 212.023,321.101 212.524,320.841C213.025,320.58 213.601,320.45 214.251,320.45C214.884,320.45 215.449,320.587 215.947,320.863C216.445,321.138 216.817,321.528 217.064,322.032C217.222,322.325 217.324,322.641 217.371,322.981C217.418,323.321 217.441,323.754 217.441,324.282L217.441,328.746C217.441,329.227 217.332,329.59 217.112,329.836C216.892,330.082 216.607,330.205 216.255,330.205C215.898,330.205 215.607,330.079 215.385,329.827C215.162,329.576 215.051,329.215 215.051,328.746L215.051,324.747C215.051,323.956 214.941,323.351 214.721,322.932C214.502,322.514 214.064,322.304 213.407,322.304C212.98,322.304 212.59,322.432 212.238,322.686C211.887,322.941 211.629,323.291 211.465,323.737C211.348,324.094 211.289,324.762 211.289,325.741L211.289,328.746C211.289,329.233 211.176,329.598 210.951,329.841C210.725,330.084 210.434,330.205 210.076,330.205C209.731,330.205 209.446,330.079 209.224,329.827C209.001,329.576 208.89,329.215 208.89,328.746L208.89,321.812C208.89,321.355 208.989,321.014 209.189,320.788C209.388,320.562 209.66,320.45 210.006,320.45C210.217,320.45 210.407,320.499 210.577,320.599C210.747,320.699 210.883,320.848 210.986,321.047C211.088,321.246 211.14,321.49 211.14,321.777Z" style="fill:rgb(0,83,158);fill-rule:nonzero;"/>
            <path d="M219.656,326.98L226.274,319.061L220.587,319.061C220.189,319.061 219.889,318.973 219.687,318.797C219.484,318.621 219.383,318.39 219.383,318.103C219.383,317.804 219.484,317.562 219.687,317.378C219.889,317.193 220.189,317.101 220.587,317.101L227.918,317.101C228.867,317.101 229.341,317.543 229.341,318.428C229.341,318.85 229.262,319.187 229.104,319.439C228.946,319.691 228.627,320.098 228.146,320.661L221.959,328.026L228.779,328.026C229.183,328.026 229.485,328.109 229.684,328.276C229.883,328.443 229.983,328.676 229.983,328.975C229.983,329.286 229.883,329.532 229.684,329.713C229.485,329.895 229.183,329.986 228.779,329.986L220.412,329.986C219.843,329.986 219.416,329.858 219.129,329.603C218.841,329.348 218.698,329.007 218.698,328.579C218.698,328.433 218.721,328.298 218.768,328.175C218.815,328.052 218.878,327.936 218.957,327.828C219.036,327.72 219.146,327.582 219.287,327.415C219.427,327.248 219.55,327.103 219.656,326.98Z" style="fill:rgb(0,83,158);fill-rule:nonzero;"/>
            <path d="M240.442,325.327C240.442,326.042 240.33,326.702 240.108,327.305C239.885,327.909 239.563,328.427 239.141,328.861C238.719,329.294 238.215,329.627 237.629,329.858C237.043,330.09 236.384,330.205 235.651,330.205C234.925,330.205 234.272,330.088 233.692,329.854C233.111,329.619 232.609,329.284 232.184,328.848C231.759,328.411 231.437,327.895 231.217,327.301C230.998,326.706 230.888,326.048 230.888,325.327C230.888,324.601 230.999,323.936 231.222,323.332C231.444,322.729 231.764,322.213 232.18,321.786C232.596,321.358 233.1,321.028 233.692,320.797C234.283,320.565 234.937,320.45 235.651,320.45C236.378,320.45 237.037,320.567 237.629,320.801C238.221,321.036 238.728,321.369 239.15,321.803C239.571,322.237 239.892,322.752 240.112,323.35C240.332,323.948 240.442,324.607 240.442,325.327ZM238.033,325.327C238.033,324.349 237.818,323.587 237.387,323.042C236.957,322.497 236.378,322.225 235.651,322.225C235.183,322.225 234.77,322.347 234.412,322.59C234.055,322.833 233.779,323.192 233.586,323.666C233.393,324.141 233.296,324.695 233.296,325.327C233.296,325.954 233.391,326.502 233.582,326.971C233.772,327.44 234.045,327.799 234.399,328.048C234.754,328.297 235.171,328.421 235.651,328.421C236.378,328.421 236.957,328.147 237.387,327.599C237.818,327.052 238.033,326.294 238.033,325.327Z" style="fill:rgb(0,83,158);fill-rule:nonzero;"/>
            <path d="M244.713,326.743L244.713,328.746C244.713,329.233 244.598,329.598 244.37,329.841C244.141,330.084 243.851,330.205 243.5,330.205C243.154,330.205 242.87,330.082 242.647,329.836C242.424,329.59 242.313,329.227 242.313,328.746L242.313,322.067C242.313,320.989 242.703,320.45 243.482,320.45C243.88,320.45 244.168,320.576 244.343,320.827C244.519,321.079 244.616,321.452 244.633,321.944C244.921,321.452 245.215,321.079 245.517,320.827C245.818,320.576 246.221,320.45 246.725,320.45C247.229,320.45 247.718,320.576 248.193,320.827C248.668,321.079 248.905,321.413 248.905,321.829C248.905,322.122 248.804,322.364 248.602,322.555C248.4,322.745 248.181,322.84 247.947,322.84C247.859,322.84 247.647,322.786 247.31,322.678C246.973,322.569 246.675,322.515 246.418,322.515C246.066,322.515 245.779,322.607 245.556,322.792C245.334,322.976 245.161,323.25 245.038,323.614C244.915,323.977 244.83,324.409 244.783,324.91C244.736,325.411 244.713,326.022 244.713,326.743Z" style="fill:rgb(0,83,158);fill-rule:nonzero;"/>
            <path d="M258.59,322.207L258.59,329.177C258.59,329.974 258.505,330.66 258.335,331.234C258.165,331.808 257.893,332.283 257.518,332.658C257.143,333.033 256.652,333.311 256.046,333.493C255.439,333.674 254.685,333.765 253.782,333.765C252.956,333.765 252.218,333.649 251.568,333.418C250.917,333.186 250.416,332.888 250.065,332.521C249.713,332.155 249.537,331.779 249.537,331.392C249.537,331.099 249.637,330.86 249.836,330.676C250.035,330.491 250.276,330.399 250.557,330.399C250.908,330.399 251.216,330.554 251.48,330.865C251.609,331.023 251.742,331.182 251.88,331.344C252.017,331.505 252.17,331.642 252.337,331.757C252.504,331.871 252.704,331.956 252.939,332.012C253.173,332.067 253.443,332.095 253.747,332.095C254.368,332.095 254.85,332.009 255.193,331.836C255.536,331.663 255.776,331.421 255.914,331.111C256.051,330.8 256.132,330.468 256.155,330.113C256.179,329.759 256.196,329.189 256.208,328.404C255.839,328.919 255.413,329.312 254.929,329.581C254.446,329.851 253.87,329.986 253.202,329.986C252.4,329.986 251.698,329.781 251.097,329.37C250.497,328.96 250.035,328.386 249.713,327.648C249.391,326.91 249.23,326.057 249.23,325.09C249.23,324.369 249.328,323.719 249.524,323.139C249.72,322.559 250,322.07 250.363,321.671C250.727,321.273 251.146,320.973 251.62,320.77C252.095,320.568 252.616,320.467 253.185,320.467C253.864,320.467 254.453,320.598 254.951,320.858C255.449,321.119 255.912,321.528 256.34,322.084L256.34,321.759C256.34,321.343 256.443,321.021 256.648,320.792C256.853,320.564 257.116,320.45 257.439,320.45C257.901,320.45 258.209,320.6 258.361,320.902C258.514,321.204 258.59,321.639 258.59,322.207ZM251.638,325.248C251.638,326.221 251.85,326.956 252.275,327.454C252.7,327.952 253.249,328.202 253.923,328.202C254.321,328.202 254.698,328.095 255.052,327.881C255.407,327.667 255.695,327.345 255.918,326.914C256.141,326.483 256.252,325.96 256.252,325.345C256.252,324.367 256.037,323.605 255.606,323.06C255.175,322.515 254.609,322.243 253.905,322.243C253.22,322.243 252.671,322.503 252.257,323.025C251.844,323.546 251.638,324.287 251.638,325.248Z" style="fill:rgb(0,83,158);fill-rule:nonzero;"/>
            <path d="M191.338,337.946L192.902,343.307L194.326,338.324C194.479,337.802 194.591,337.446 194.665,337.256C194.738,337.065 194.875,336.884 195.078,336.711C195.28,336.538 195.557,336.452 195.908,336.452C196.266,336.452 196.545,336.538 196.748,336.711C196.95,336.884 197.092,337.071 197.174,337.273C197.256,337.475 197.37,337.826 197.517,338.324L198.94,343.307L200.522,337.946C200.628,337.559 200.713,337.279 200.777,337.106C200.842,336.934 200.95,336.781 201.103,336.649C201.255,336.517 201.475,336.452 201.762,336.452C202.049,336.452 202.298,336.551 202.509,336.75C202.72,336.95 202.825,337.184 202.825,337.454C202.825,337.7 202.734,338.072 202.553,338.57L200.593,344.318C200.423,344.804 200.291,345.156 200.197,345.372C200.104,345.589 199.956,345.783 199.753,345.953C199.551,346.122 199.274,346.207 198.923,346.207C198.56,346.207 198.274,346.117 198.066,345.935C197.858,345.753 197.704,345.531 197.604,345.267C197.505,345.003 197.396,344.661 197.279,344.239L195.908,339.563L194.581,344.239C194.405,344.889 194.215,345.38 194.01,345.711C193.805,346.042 193.444,346.207 192.929,346.207C192.665,346.207 192.441,346.156 192.256,346.054C192.072,345.951 191.918,345.805 191.795,345.614C191.672,345.424 191.563,345.198 191.47,344.937C191.376,344.677 191.303,344.47 191.25,344.318L189.308,338.57C189.114,338.031 189.018,337.659 189.018,337.454C189.018,337.196 189.12,336.964 189.325,336.759C189.53,336.554 189.782,336.452 190.081,336.452C190.479,336.452 190.749,336.564 190.89,336.79C191.03,337.016 191.18,337.401 191.338,337.946Z" style="fill:rgb(0,166,219);fill-rule:nonzero;"/>
            <path d="M206.877,337.814L206.877,344.748C206.877,345.229 206.763,345.592 206.534,345.838C206.306,346.084 206.016,346.207 205.664,346.207C205.312,346.207 205.027,346.081 204.807,345.829C204.587,345.578 204.477,345.217 204.477,344.748L204.477,337.884C204.477,337.41 204.587,337.052 204.807,336.812C205.027,336.572 205.312,336.452 205.664,336.452C206.016,336.452 206.306,336.572 206.534,336.812C206.763,337.052 206.877,337.386 206.877,337.814ZM205.69,335.335C205.356,335.335 205.071,335.233 204.833,335.028C204.596,334.823 204.477,334.533 204.477,334.158C204.477,333.818 204.599,333.538 204.842,333.318C205.085,333.099 205.368,332.989 205.69,332.989C206.001,332.989 206.276,333.088 206.516,333.288C206.757,333.487 206.877,333.777 206.877,334.158C206.877,334.527 206.76,334.815 206.525,335.023C206.291,335.231 206.013,335.335 205.69,335.335Z" style="fill:rgb(0,166,219);fill-rule:nonzero;"/>
            <path d="M211.772,337.884L211.772,346.023C211.772,346.603 211.753,347.076 211.715,347.442C211.677,347.809 211.623,348.074 211.553,348.238C211.154,349.257 210.307,349.767 209.012,349.767C208.286,349.767 207.735,349.667 207.36,349.468C206.985,349.269 206.798,348.979 206.798,348.598C206.798,348.317 206.883,348.087 207.053,347.908C207.222,347.729 207.445,347.64 207.72,347.64C207.756,347.64 207.813,347.644 207.892,347.653C207.971,347.662 208.088,347.672 208.243,347.684C208.399,347.696 208.506,347.702 208.564,347.702C208.887,347.702 209.102,347.576 209.21,347.324C209.319,347.072 209.373,346.621 209.373,345.97L209.373,337.884C209.373,337.41 209.484,337.052 209.707,336.812C209.929,336.572 210.222,336.452 210.586,336.452C210.937,336.452 211.223,336.57 211.443,336.808C211.662,337.045 211.772,337.404 211.772,337.884ZM210.586,335.335C210.252,335.335 209.966,335.233 209.729,335.028C209.491,334.823 209.373,334.533 209.373,334.158C209.373,333.818 209.494,333.538 209.738,333.318C209.981,333.099 210.263,332.989 210.586,332.989C210.896,332.989 211.172,333.088 211.412,333.288C211.652,333.487 211.772,333.777 211.772,334.158C211.772,334.527 211.655,334.815 211.421,335.023C211.186,335.231 210.908,335.335 210.586,335.335Z" style="fill:rgb(0,166,219);fill-rule:nonzero;"/>
            <path d="M220.755,339.203L216.36,344.116L221.062,344.116C221.443,344.116 221.73,344.205 221.923,344.384C222.117,344.562 222.214,344.792 222.214,345.074C222.214,345.343 222.118,345.563 221.928,345.733C221.737,345.903 221.449,345.988 221.062,345.988L214.558,345.988C214.101,345.988 213.76,345.888 213.534,345.689C213.309,345.49 213.196,345.217 213.196,344.871C213.196,344.666 213.275,344.46 213.433,344.252C213.591,344.044 213.92,343.662 214.418,343.105C214.945,342.519 215.424,341.989 215.855,341.514C216.285,341.039 216.685,340.596 217.054,340.183C217.423,339.769 217.73,339.419 217.973,339.132C218.216,338.845 218.411,338.599 218.557,338.394L214.989,338.394C214.497,338.394 214.125,338.35 213.873,338.262C213.621,338.174 213.495,337.943 213.495,337.568C213.495,337.292 213.59,337.073 213.78,336.909C213.971,336.745 214.242,336.663 214.593,336.663L220.104,336.663C220.614,336.663 221.005,336.737 221.278,336.887C221.55,337.036 221.686,337.304 221.686,337.691C221.686,337.82 221.66,337.953 221.607,338.091C221.554,338.228 221.496,338.341 221.431,338.429C221.367,338.517 221.279,338.624 221.168,338.75C221.056,338.876 220.919,339.027 220.755,339.203Z" style="fill:rgb(0,166,219);fill-rule:nonzero;"/>
            <path d="M230.071,341.918L225.377,341.918C225.383,342.463 225.493,342.944 225.707,343.36C225.921,343.776 226.205,344.089 226.56,344.3C226.914,344.511 227.305,344.617 227.733,344.617C228.02,344.617 228.282,344.583 228.52,344.516C228.757,344.448 228.987,344.343 229.21,344.199C229.432,344.056 229.637,343.902 229.825,343.738C230.012,343.574 230.255,343.351 230.554,343.07C230.677,342.964 230.853,342.912 231.082,342.912C231.328,342.912 231.527,342.979 231.679,343.114C231.832,343.248 231.908,343.439 231.908,343.685C231.908,343.902 231.823,344.155 231.653,344.445C231.483,344.735 231.227,345.014 230.884,345.28C230.541,345.547 230.11,345.768 229.592,345.944C229.073,346.12 228.477,346.207 227.803,346.207C226.262,346.207 225.064,345.768 224.209,344.889C223.353,344.01 222.925,342.818 222.925,341.312C222.925,340.603 223.031,339.945 223.242,339.339C223.453,338.732 223.76,338.212 224.165,337.779C224.569,337.345 225.067,337.013 225.659,336.781C226.251,336.55 226.907,336.434 227.627,336.434C228.565,336.434 229.369,336.632 230.04,337.027C230.711,337.423 231.213,337.934 231.547,338.561C231.881,339.188 232.048,339.827 232.048,340.477C232.048,341.08 231.876,341.472 231.53,341.65C231.184,341.829 230.698,341.918 230.071,341.918ZM225.377,340.556L229.728,340.556C229.669,339.736 229.448,339.122 229.064,338.715C228.681,338.308 228.175,338.104 227.548,338.104C226.951,338.104 226.46,338.31 226.076,338.724C225.692,339.137 225.46,339.747 225.377,340.556Z" style="fill:rgb(0,166,219);fill-rule:nonzero;"/>
            <path d="M236.452,342.745L236.452,344.748C236.452,345.235 236.337,345.6 236.109,345.843C235.88,346.086 235.59,346.207 235.239,346.207C234.893,346.207 234.609,346.084 234.386,345.838C234.164,345.592 234.052,345.229 234.052,344.748L234.052,338.069C234.052,336.991 234.442,336.452 235.221,336.452C235.62,336.452 235.907,336.578 236.082,336.829C236.258,337.081 236.355,337.454 236.372,337.946C236.66,337.454 236.954,337.081 237.256,336.829C237.558,336.578 237.96,336.452 238.464,336.452C238.968,336.452 239.457,336.578 239.932,336.829C240.407,337.081 240.644,337.415 240.644,337.831C240.644,338.124 240.543,338.366 240.341,338.557C240.139,338.747 239.92,338.842 239.686,338.842C239.598,338.842 239.386,338.788 239.049,338.68C238.712,338.571 238.414,338.517 238.157,338.517C237.805,338.517 237.518,338.609 237.295,338.794C237.073,338.978 236.9,339.252 236.777,339.616C236.654,339.979 236.569,340.411 236.522,340.912C236.475,341.413 236.452,342.024 236.452,342.745Z" style="fill:rgb(0,166,219);fill-rule:nonzero;"/>
        </g>
        <g transform="matrix(1,0,0,1,95.087,70.2791)">
            <path d="M0,0L16.054,0" style="fill:none;fill-rule:nonzero;stroke:rgb(159,222,242);stroke-width:0.64px;stroke-linecap:round;stroke-linejoin:round;"/>
        </g>
        <g transform="matrix(1,0,0,1,165.736,70.2791)">
            <path d="M0,0L16.051,0" style="fill:none;fill-rule:nonzero;stroke:rgb(159,222,242);stroke-width:0.64px;stroke-linecap:round;stroke-linejoin:round;"/>
        </g>
    </g>
</svg>
