<?xml version="1.0" encoding="UTF-8" standalone="no"?>
<!DOCTYPE svg PUBLIC "-//W3C//DTD SVG 1.1//EN" "http://www.w3.org/Graphics/SVG/1.1/DTD/svg11.dtd">
<svg width="100%" height="100%" viewBox="0 0 3194 998" version="1.1" xmlns="http://www.w3.org/2000/svg" xmlns:xlink="http://www.w3.org/1999/xlink" xml:space="preserve" xmlns:serif="http://www.serif.com/" style="fill-rule:evenodd;clip-rule:evenodd;stroke-linejoin:round;stroke-miterlimit:2;">
    <g id="Logo" transform="matrix(4.16667,0,0,4.16667,-944.88,-1187.01)">
        <g transform="matrix(0,-1,-1,0,335.376,310.43)">
            <path d="M-105.131,-105.131C-163.193,-105.131 -210.262,-58.062 -210.262,0C-210.262,58.062 -163.193,105.131 -105.131,105.131C-47.069,105.131 0,58.062 0,0C0,-58.062 -47.069,-105.131 -105.131,-105.131" style="fill:white;fill-rule:nonzero;"/>
        </g>
        <g transform="matrix(1,0,0,1,350.099,310.43)">
            <path d="M0,122.634L90.253,110.025C90.329,108.403 90.375,106.772 90.375,105.131C90.375,47.068 43.306,0 -14.756,0C-28.921,0 -42.426,2.812 -54.758,7.892L0,122.634Z" style="fill:rgb(163,207,98);fill-rule:nonzero;"/>
        </g>
        <g transform="matrix(1,0,0,1,313.13,339.119)">
            <path d="M0,62.358L-35.284,-11.578C-63.313,6.768 -82.034,38.138 -82.873,73.936L0,62.358Z" style="fill:rgb(247,148,50);fill-rule:nonzero;"/>
        </g>
        <g transform="matrix(1,0,0,1,359.026,496.868)">
            <path d="M0,-45.098L26.747,10.949C52.206,-2.997 71.253,-27.171 78.376,-56.047L0,-45.098Z" style="fill:rgb(31,196,244);fill-rule:nonzero;"/>
        </g>
        <g transform="matrix(-0.990382,0.13836,0.13836,0.990382,284.349,523.313)">
            <path d="M-51.614,-96.922L39.691,-96.922C38.434,-46.41 0.816,-2.761 -50.867,4.46C-62.017,6.017 -72.998,5.752 -83.52,3.91L-51.614,-96.922Z" style="fill:rgb(163,207,98);fill-rule:nonzero;"/>
        </g>
        <g transform="matrix(1,0,0,1,335.376,517.219)">
            <path d="M0,-203.315C-56.054,-203.315 -101.657,-157.711 -101.657,-101.658C-101.657,-45.604 -56.054,-0.001 0,-0.001C56.054,-0.001 101.657,-45.604 101.657,-101.658C101.657,-157.711 56.054,-203.315 0,-203.315M0,6.947C-59.885,6.947 -108.605,-41.773 -108.605,-101.658C-108.605,-161.543 -59.885,-210.262 0,-210.262C59.885,-210.262 108.604,-161.543 108.604,-101.658C108.604,-41.773 59.885,6.947 0,6.947" style="fill:rgb(0,54,91);fill-rule:nonzero;"/>
        </g>
        <g transform="matrix(0,1,1,0,417.749,347.672)">
            <path d="M-55.636,-70.42L40.763,-70.42L70.42,-55.636L-31.034,-55.636L-55.636,-70.42Z" style="fill:rgb(9,144,208);fill-rule:nonzero;"/>
        </g>
        <g transform="matrix(0,1,1,0,434.554,338.517)">
            <path d="M-21.879,-72.441L79.574,-72.441L72.441,-21.879L-29.012,-21.879L-21.879,-72.441Z" style="fill:rgb(0,54,91);fill-rule:nonzero;"/>
        </g>
        <g transform="matrix(0.990195,-0.139691,-0.139691,-0.990195,364.507,318.981)">
            <path d="M-2.043,2.655L49.02,2.655L37.089,29.205L-13.245,29.081L-2.043,2.655Z" style="fill:rgb(198,200,202);fill-rule:nonzero;"/>
        </g>
        <g transform="matrix(0,1,1,0,345.109,411.548)">
            <path d="M-60.744,-75.528L45.871,-75.528L75.528,-60.744L-36.142,-60.744L-60.744,-75.528Z" style="fill:rgb(9,144,208);fill-rule:nonzero;"/>
        </g>
        <g transform="matrix(0,1,1,0,361.914,402.394)">
            <path d="M-26.987,-77.549L84.682,-77.549L77.549,-26.987L-34.12,-26.987L-26.987,-77.549Z" style="fill:rgb(0,54,91);fill-rule:nonzero;"/>
        </g>
        <g transform="matrix(0.990195,-0.139691,-0.139691,-0.990195,286.758,377.75)">
            <path d="M-2.043,2.655L49.02,2.655L37.089,29.205L-13.245,29.081L-2.043,2.655Z" style="fill:rgb(198,200,202);fill-rule:nonzero;"/>
        </g>
        <g transform="matrix(1,0,0,1,545.115,371.998)">
            <path d="M0,81.4L-8.611,0L-22.57,0L-39.303,62.37L-56.133,0L-70.189,0L-78.703,81.4L-64.547,81.4L-59.15,28.79L-46.332,81.4L-32.57,81.4L-19.781,28.184L-14.156,81.4L0,81.4Z" style="fill:rgb(0,54,91);fill-rule:nonzero;"/>
        </g>
        <g transform="matrix(1,0,0,1,572.836,404.888)">
            <path d="M0,37.84C0.658,37.84 1.402,37.749 2.227,37.565C3.053,37.383 3.91,37.162 4.801,36.904C5.693,36.649 6.518,36.393 7.277,36.135C8.035,35.879 8.662,35.64 9.158,35.42C9.652,35.2 9.965,35.054 10.098,34.98L10.098,21.23L1.187,21.89C-1.387,22.11 -3.283,22.844 -4.504,24.09C-5.727,25.338 -6.336,27.024 -6.336,29.15L-6.336,31.569C-6.336,33.037 -6.057,34.248 -5.494,35.2C-4.934,36.153 -4.176,36.833 -3.217,37.235C-2.262,37.639 -1.187,37.84 0,37.84M-7.426,49.17C-11.451,49.17 -14.719,47.85 -17.227,45.21C-19.734,42.569 -20.988,38.903 -20.988,34.21L-20.988,28.93C-20.988,24.458 -19.57,20.773 -16.73,17.875C-13.895,14.979 -9.471,13.529 -3.465,13.529L10.098,13.529L10.098,9.46C10.098,7.628 9.801,6.105 9.207,4.895C8.613,3.685 7.508,2.805 5.891,2.255C4.273,1.705 1.814,1.43 -1.484,1.43L-17.424,1.43L-17.424,-8.03C-14.85,-8.91 -11.865,-9.681 -8.465,-10.34C-5.066,-11 -0.957,-11.33 3.861,-11.33C8.281,-11.33 12.061,-10.742 15.197,-9.57C18.33,-8.396 20.707,-6.38 22.324,-3.52C23.941,-0.66 24.75,3.3 24.75,8.36L24.75,48.51L13.168,48.51L10.791,42.24C10.328,42.827 9.537,43.487 8.414,44.22C7.291,44.954 5.924,45.705 4.307,46.475C2.688,47.245 0.873,47.888 -1.139,48.4C-3.152,48.912 -5.246,49.17 -7.426,49.17" style="fill:rgb(0,54,91);fill-rule:nonzero;"/>
        </g>
        <g transform="matrix(1,0,0,1,633.225,432.168)">
            <path d="M0,8.579C1.518,8.579 2.971,8.122 4.357,7.204C5.742,6.288 6.848,4.619 7.674,2.199C8.498,-0.221 8.91,-3.703 8.91,-8.251C8.91,-12.65 8.529,-16.115 7.771,-18.646C7.012,-21.176 5.973,-22.972 4.654,-24.035C3.332,-25.098 1.783,-25.631 0,-25.631C-2.047,-25.631 -3.928,-25.263 -5.643,-24.53C-7.359,-23.797 -8.811,-23.063 -9.998,-22.33L-9.998,5.72C-8.68,6.6 -7.127,7.297 -5.346,7.809C-3.563,8.323 -1.781,8.579 0,8.579M-24.65,47.3L-24.65,-37.841L-12.375,-37.841L-9.998,-32.231C-8.746,-33.33 -7.359,-34.376 -5.84,-35.365C-4.322,-36.356 -2.672,-37.161 -0.891,-37.785C0.891,-38.407 2.773,-38.721 4.752,-38.721C7.986,-38.721 10.807,-38.023 13.217,-36.631C15.625,-35.236 17.588,-33.221 19.107,-30.58C20.625,-27.941 21.746,-24.732 22.473,-20.955C23.199,-17.178 23.562,-12.942 23.562,-8.251C23.562,-1.942 23.002,3.483 21.879,8.029C20.756,12.577 18.826,16.042 16.088,18.425C13.348,20.808 9.57,21.999 4.752,21.999C2.244,21.999 -0.312,21.67 -2.92,21.01C-5.527,20.35 -7.887,19.397 -9.998,18.149L-9.998,47.3L-24.65,47.3Z" style="fill:rgb(0,54,91);fill-rule:nonzero;"/>
        </g>
        <g transform="matrix(1,0,0,1,687.971,371.228)">
            <path d="M0,82.72C-4.619,82.72 -8.398,81.749 -11.336,79.805C-14.273,77.863 -16.566,75.075 -18.215,71.446C-19.865,67.815 -21.021,63.47 -21.68,58.41C-22.342,53.35 -22.67,47.704 -22.67,41.47C-22.67,34.944 -22.291,29.115 -21.531,23.98C-20.773,18.848 -19.42,14.503 -17.473,10.946C-15.527,7.389 -12.787,4.675 -9.256,2.805C-5.727,0.936 -1.187,0 4.357,0C7.723,0 10.807,0.149 13.613,0.44C16.418,0.735 19.074,1.155 21.582,1.705C24.09,2.255 26.598,2.899 29.107,3.63L29.107,16.17C27.721,15.95 25.871,15.73 23.562,15.51C21.252,15.29 18.678,15.089 15.84,14.906C13.002,14.723 10.064,14.63 7.029,14.63C2.871,14.63 -0.281,15.455 -2.426,17.105C-4.57,18.755 -6.039,21.543 -6.83,25.465C-7.623,29.389 -8.018,34.76 -8.018,41.58C-8.018,46.861 -7.805,51.188 -7.375,54.56C-6.947,57.934 -6.236,60.593 -5.246,62.535C-4.256,64.479 -2.953,65.835 -1.336,66.605C0.281,67.375 2.277,67.76 4.654,67.76C7.359,67.76 9.949,67.504 12.426,66.991C14.9,66.478 16.895,65.964 18.414,65.45L18.414,49.611L5.248,49.611L5.248,36.741C6.633,36.52 8.283,36.338 10.197,36.19C12.111,36.044 14.107,35.915 16.187,35.805C18.266,35.696 20.262,35.64 22.176,35.64C24.287,35.64 26.186,35.659 27.869,35.696C29.553,35.733 31.086,35.824 32.473,35.97L32.473,82.17L21.484,82.17L19.504,76.67C17.588,77.918 14.883,79.238 11.385,80.63C7.887,82.024 4.092,82.72 0,82.72" style="fill:rgb(0,54,91);fill-rule:nonzero;"/>
        </g>
        <g transform="matrix(1,0,0,1,751.131,404.888)">
            <path d="M0,37.84C0.66,37.84 1.402,37.749 2.229,37.565C3.053,37.383 3.912,37.162 4.803,36.904C5.693,36.649 6.518,36.393 7.277,36.135C8.035,35.879 8.664,35.64 9.158,35.42C9.654,35.2 9.967,35.054 10.1,34.98L10.1,21.23L1.189,21.89C-1.385,22.11 -3.283,22.844 -4.504,24.09C-5.725,25.338 -6.336,27.024 -6.336,29.15L-6.336,31.569C-6.336,33.037 -6.055,34.248 -5.494,35.2C-4.934,36.153 -4.174,36.833 -3.217,37.235C-2.26,37.639 -1.187,37.84 0,37.84M-7.424,49.17C-11.451,49.17 -14.717,47.85 -17.225,45.21C-19.734,42.569 -20.986,38.903 -20.986,34.21L-20.986,28.93C-20.986,24.458 -19.568,20.773 -16.73,17.875C-13.893,14.979 -9.471,13.529 -3.465,13.529L10.1,13.529L10.1,9.46C10.1,7.628 9.803,6.105 9.207,4.895C8.613,3.685 7.508,2.805 5.891,2.255C4.273,1.705 1.816,1.43 -1.484,1.43L-17.424,1.43L-17.424,-8.03C-14.85,-8.91 -11.863,-9.681 -8.463,-10.34C-5.064,-11 -0.957,-11.33 3.861,-11.33C8.283,-11.33 12.063,-10.742 15.197,-9.57C18.332,-8.396 20.707,-6.38 22.326,-3.52C23.941,-0.66 24.75,3.3 24.75,8.36L24.75,48.51L13.168,48.51L10.791,42.24C10.33,42.827 9.537,43.487 8.416,44.22C7.293,44.954 5.924,45.705 4.307,46.475C2.689,47.245 0.875,47.888 -1.137,48.4C-3.152,48.912 -5.246,49.17 -7.424,49.17" style="fill:rgb(0,54,91);fill-rule:nonzero;"/>
        </g>
        <g transform="matrix(1,0,0,1,803.502,369.469)">
            <path d="M0,84.149C-3.762,84.149 -6.881,83.472 -9.355,82.114C-11.83,80.758 -13.662,78.669 -14.85,75.844C-16.037,73.022 -16.633,69.374 -16.633,64.899L-16.633,0L-1.98,0L-1.98,62.479C-1.98,64.679 -1.781,66.422 -1.387,67.705C-0.99,68.988 -0.381,69.923 0.445,70.509C1.27,71.097 2.311,71.5 3.564,71.719L7.623,72.379L7.623,84.149L0,84.149Z" style="fill:rgb(0,54,91);fill-rule:nonzero;"/>
        </g>
        <g transform="matrix(1,0,0,1,834.489,369.469)">
            <path d="M0,84.149C-3.764,84.149 -6.881,83.472 -9.355,82.114C-11.832,80.758 -13.662,78.669 -14.852,75.844C-16.039,73.022 -16.633,69.374 -16.633,64.899L-16.633,0L-1.98,0L-1.98,62.479C-1.98,64.679 -1.783,66.422 -1.387,67.705C-0.99,68.988 -0.381,69.923 0.445,70.509C1.27,71.097 2.309,71.5 3.563,71.719L7.623,72.379L7.623,84.149L0,84.149Z" style="fill:rgb(0,54,91);fill-rule:nonzero;"/>
        </g>
        <g transform="matrix(1,0,0,1,861.611,427.437)">
            <path d="M0,-7.48L12.078,-7.48C14.059,-7.48 15.51,-7.919 16.434,-8.799C17.357,-9.679 17.82,-11.255 17.82,-13.53C17.82,-15.656 17.523,-17.361 16.93,-18.645C16.336,-19.926 15.41,-20.844 14.158,-21.395C12.902,-21.945 11.221,-22.219 9.109,-22.219C6.863,-22.219 5.082,-21.796 3.762,-20.955C2.441,-20.111 1.486,-18.626 0.891,-16.5C0.297,-14.372 0,-11.366 0,-7.48M9.604,26.51C3.729,26.51 -0.957,25.649 -4.455,23.925C-7.953,22.204 -10.479,19.14 -12.027,14.741C-13.58,10.34 -14.355,4.254 -14.355,-3.52C-14.355,-11.512 -13.629,-17.709 -12.176,-22.11C-10.727,-26.509 -8.283,-29.589 -4.85,-31.349C-1.42,-33.11 3.232,-33.99 9.109,-33.99C14.389,-33.99 18.613,-33.402 21.781,-32.23C24.949,-31.055 27.24,-29.001 28.66,-26.07C30.08,-23.135 30.789,-18.992 30.789,-13.639C30.789,-9.679 30.08,-6.544 28.66,-4.235C27.24,-1.924 25.246,-0.275 22.672,0.715C20.098,1.706 17.061,2.201 13.563,2.201L0.199,2.201C0.33,5.208 0.742,7.609 1.436,9.406C2.129,11.204 3.416,12.486 5.297,13.255C7.178,14.026 9.9,14.411 13.465,14.411L29.008,14.411L29.008,23.98C26.434,24.568 23.611,25.135 20.543,25.685C17.475,26.236 13.826,26.51 9.604,26.51" style="fill:rgb(0,54,91);fill-rule:nonzero;"/>
        </g>
        <g transform="matrix(1,0,0,1,902.002,393.558)">
            <path d="M0,59.84L0,0.77L11.287,0.77L14.652,9.79C16.566,7.078 18.727,4.768 21.137,2.86C23.545,0.954 26.4,0 29.701,0C30.426,0 31.168,0.038 31.928,0.11C32.686,0.184 33.396,0.33 34.057,0.55L34.057,17.27C33.066,17.124 32.027,16.995 30.937,16.885C29.85,16.775 28.811,16.72 27.82,16.72C25.904,16.72 24.172,16.959 22.623,17.435C21.07,17.913 19.652,18.609 18.365,19.525C17.078,20.443 15.842,21.634 14.652,23.1L14.652,59.84L0,59.84Z" style="fill:rgb(0,54,91);fill-rule:nonzero;"/>
        </g>
        <g transform="matrix(1,0,0,1,960.512,394.327)">
            <path d="M0,85.141L5.74,59.071C2.771,59.071 0.164,58.449 -2.08,57.201C-4.324,55.954 -6.187,54.176 -7.674,51.866C-9.158,49.556 -10.297,46.678 -11.09,43.231L-21.088,0L-5.842,0L2.572,39.931C2.902,41.325 3.332,42.424 3.859,43.231C4.387,44.038 4.949,44.606 5.543,44.936C6.137,45.266 6.682,45.486 7.176,45.596C7.672,45.705 8.051,45.761 8.314,45.761L17.918,0L32.768,0L16.928,74.25L12.176,85.141L0,85.141Z" style="fill:rgb(0,54,91);fill-rule:nonzero;"/>
        </g>
    </g>
</svg>
